# xmcd
#
# Track frame offsets: 
#        150
#        14243
#        27768
#        41678
#        58491
#        72355
#        92003
#        109905
#        131461
#        145466
#        165069
#        182021
#        202203
#        219628
#        233994
#
# Disc length: 3302 seconds
#
# Revision: 3
# Processed by: cddbd v1.5.2PL0 Copyright (c) Steve Scherf et al.
# Submitted via: ExactAudioCopyFreeDBPlugin 1.0
#
DISCID=e30ce40f
DTITLE=Amewu - Entwicklungshilfe
DYEAR=2009
DGENRE=Hip-Hop
TTITLE0=Intro
TTITLE1=Maschine
TTITLE2=Viele Rapper
TTITLE3=Einzelkampf
TTITLE4=Get Rich
TTITLE5=Image feat. Team Avantgarde and Wakka
TTITLE6=Universelle
TTITLE7=Finsternis
TTITLE8=Land der Freshness
TTITLE9=Freak feat. Wakka
TTITLE10=Thin Line feat. Wisdom and Slime, Werd
TTITLE11=Sterben
TTITLE12=Wasauchimmer
TTITLE13=Freiheit feat. Chefket
TTITLE14=Hoffnung
EXTD=
EXTT0=
EXTT1=
EXTT2=
EXTT3=
EXTT4=
EXTT5=
EXTT6=
EXTT7=
EXTT8=
EXTT9=
EXTT10=
EXTT11=
EXTT12=
EXTT13=
EXTT14=
PLAYORDER=
